<svg width="822" height="473" viewBox="0 0 822 473" fill="none" xmlns="http://www.w3.org/2000/svg">
<g clip-path="url(#clip0_1_10)">
<mask id="mask0_1_10" style="mask-type:alpha" maskUnits="userSpaceOnUse" x="516" y="57" width="492" height="331">
<path d="M577.876 100.433C534.041 130.009 506.87 165.5 518.826 196.495C530.781 227.491 581.499 253.755 599.613 286.17C617.727 318.585 602.511 356.916 620.987 374.661C639.101 392.17 690.544 389.094 736.553 384.125C782.199 379.157 822.774 372.532 861.175 359.045C899.214 345.795 935.442 325.683 966.235 296.581C996.666 267.714 1022.03 229.857 999.202 207.616C976.741 185.375 906.822 178.513 855.741 150.594C805.023 122.674 773.505 73.4594 727.496 60.6826C681.849 47.6692 621.349 71.0933 577.876 100.433Z" fill="#C86C91"/>
</mask>
<g mask="url(#mask0_1_10)">
<rect width="513" height="384" transform="matrix(-1 0 0 1 852 28)" fill="#F78C8C"/>
</g>
</g>
<defs>
<clipPath id="clip0_1_10">
<rect width="822" height="473" fill="white" transform="matrix(-1 0 0 1 822 0)"/>
</clipPath>
</defs>
</svg>
