<svg xmlns="http://www.w3.org/2000/svg" width="1024" height="1024" viewBox="0 0 512 512"><path fill="#fdfdfd" d="M0 0h512v512H0V0Z" opacity="0"/><path fill="#f9b042" d="M234 39a412.762 412.762 0 0 0 10 4c10.376 4.18 20.633 8.584 30.844 13.152 8.643 3.843 17.373 7.36 26.246 10.637C304 68 304 68 309 71a810.588 810.588 0 0 0 10 4c3.91 1.657 7.798 3.36 11.688 5.063 11.604 5.09 11.604 5.09 23.312 9.937 6.907 9.415 5.637 20.101 5.488 31.32-.01 2.071-.016 4.142-.021 6.213-.02 5.422-.068 10.843-.124 16.265-.051 5.544-.074 11.088-.099 16.632A6797.927 6797.927 0 0 1 359 193h2l-.313 5.438L361 204l5 1c27.968 12.317 27.968 12.317 29.689 23.46.34 6.07.381 12.1.294 18.175l-.076 7.605-.044 4.032c-.08 8.569-.092 17.138-.115 25.707-.024 7.52-.073 15.037-.176 22.556-.1 7.293-.13 14.584-.114 21.878a459.039 459.039 0 0 1-.093 8.315c-1.068 17.41-1.068 17.41 8.326 30.774A143.082 143.082 0 0 0 411 371a212.486 212.486 0 0 1 6.5 4.375c1.832 1.21 3.666 2.418 5.5 3.625l3.031 2.102c3.18 2.163 3.18 2.163 7.969 3.898l1 3-4.688 2.313c-5.328 2.615-5.328 2.615-10.312 5.687l-3.438 1.188c-5.287 2.1-9.938 4.847-14.804 7.777C398 407 398 407 393.557 408.738c-6.244 2.542-12.206 5.461-18.221 8.496l-3.609 1.809c-3.786 1.899-7.569 3.803-11.352 5.707l-7.55 3.79c-4.817 2.416-9.633 4.834-14.447 7.255A9275.98 9275.98 0 0 1 316 447a91553.016 91553.016 0 0 0-19.63 9.818 6552.393 6552.393 0 0 1-21.526 10.725l-9.344 4.644-4.781 2.366-4.625 2.302-4.135 2.052c-4.09 2.088-4.09 2.088-8.276 4.88-4.442 2.669-5.213 2.536-9.683.213l-3.734-1.77c-1.988-1.01-1.988-1.01-4.016-2.043l-4.258-2.152c-2.35-1.198-4.7-2.398-7.047-3.601-6.247-3.332-6.247-3.332-12.945-5.434l-3 3c-6.385.837-9.824.012-14-5v-8c-2.53-1.433-2.53-1.433-6-2-6.376-2.69-12.529-5.753-18.703-8.867-6.34-3.147-12.733-6.185-19.126-9.225-4.24-2.018-8.432-4.05-12.554-6.303-4.836-2.146-7.428-1.157-12.117 1.02C113 435 113 435 108 434l-1-3h-2v-6c-2.678-1.325-2.678-1.325-6-2a212.613 212.613 0 0 1-6.121-2.871l-3.55-1.724-3.766-1.842-7.848-3.813-3.942-1.918a2949.42 2949.42 0 0 0-16.148-7.77l-2.82-1.35a897.174 897.174 0 0 0-20.04-9.274C32 391 32 391 29 388c3.604-2.043 7.208-4.084 10.813-6.125l3.044-1.727A3137.96 3137.96 0 0 1 52 375l3.11-1.769C62.66 369 62.66 369 66 369l-.027-4.602c-.081-14.33-.141-28.661-.18-42.992-.021-7.367-.05-14.733-.095-22.1a4573.35 4573.35 0 0 1-.078-21.339c-.007-2.71-.021-5.42-.043-8.13-.03-3.804-.033-7.607-.031-11.41l-.044-3.377C65.54 247.82 67.17 242.592 70 236c.09-8.52.09-8.52-5-15-.696-15.774 17.178-24.332 28.813-31.813A786.079 786.079 0 0 1 99 186l2.828-1.758C108.734 180 108.734 180 111 180l.078-4.8c.551-23.74 2.436-49.26 23.047-64.512 17.105-7.45 36.51-4.363 51.875 5.312 5.45 4.182 8.976 7.835 12 14l2 4v6c6.287-3.444 6.287-3.444 12.313-7.313 9.305-4.258 17.714-1.434 26.437 2.813l2.877 1.376c2.805 1.35 5.59 2.73 8.373 4.124l4.414 2.2c2.6 1.304 5.196 2.615 7.79 3.933 5.221 2.568 10.556 4.843 15.901 7.14 5.011 2.222 9.884 4.679 14.77 7.16 5.036 2.525 10.19 4.75 15.378 6.942 3.96 1.718 7.861 3.535 11.763 5.383l4.539 2.144 9.437 4.47 4.524 2.136 4.133 1.957c3.247 1.56 3.247 1.56 6.351 2.535.161-11.73.229-23.456.232-35.187.005-3.993.045-7.981.1-11.974.076-5.733.075-11.461.059-17.194l.121-5.424c.308-8.555.308-8.555-3.958-15.34-3.167-1.333-6.204-2.136-9.554-2.881-3.027-1.33-6.048-2.674-9.063-4.031l-4.914-2.207-10.046-4.524c-10.35-4.65-10.35-4.65-20.793-9.082-3.826-1.591-7.468-3.222-11.122-5.156-5.254-2.69-10.602-4.823-16.152-6.824C261 66 261 66 256 63a156.433 156.433 0 0 0-5.824-2.23c-7.859-2.956-15.404-6.492-22.988-10.083l-4.159-1.955A4631.18 4631.18 0 0 1 213 44l.02 2.765c.066 9.456.112 18.912.145 28.369.015 3.534.035 7.068.061 10.602.037 5.066.054 10.131.067 15.198.015 1.591.03 3.183.047 4.823v4.428l.02 3.923L213 117l-3 1a3526.48 3526.48 0 0 1-.44-33.478c-.04-3.797-.094-7.595-.164-11.392-.096-5.454-.142-10.906-.177-16.36l-.125-5.159c-.005-11.762-.005-11.762 4.74-16.183 8.678-2.975 12.37-1.001 20.166 3.572Z"/><path fill="#3b3939" d="M139 239c2.08.418 4.164.808 6.25 1.188C166.517 244.69 186.258 259.12 197 278v2l3 1v4h2l1 7h2a103.654 103.654 0 0 1 5 26c2.356-2.074 2.356-2.074 3.5-6.125L215 308h2c2.528-7.724 3.623-15.107 4.188-23.188l.248-3.173c.197-2.546.382-5.092.564-7.639 16.345 4.995 29.72 15.472 35 32l2 4c.696 5.442 1.256 10.877 1.768 16.338.637 6.185 1.65 10.96 4.232 16.662.77 7.8.445 15.513-2 23l5.688-1.5c4.079-1.076 7.016-1.5 11.312-1.5v32h-2l-2 4c-3.743 2.495-5.909 2.331-10.375 2.375l-3.96.086c-6.493-.817-9.616-4.927-12.665-10.461v-5l-3.25 2.625c-17.099 12.15-37.094 15.922-57.75 15.813l-4.04.06c-9.528-.005-17.886-1.629-26.96-4.498.39 2.224.39 2.224.79 4.492-1.203 8.39-6.294 9.892-13.415 13.633l-3.749 2.08a686.826 686.826 0 0 1-7.344 4.011c-3.914 2.128-7.72 4.417-11.532 6.721-4.248 2.557-7.729 3.973-12.75 4.063l-2-4h-2v-6l-2-1h2l1-4c3.07-2.262 3.07-2.262 7.125-4.688l4.383-2.648L122 410l8-4.813 3.691-2.203c3.801-2.28 7.564-4.615 11.309-6.984a266.631 266.631 0 0 0-8.813-6.313c-15.053-10.566-26.963-25.764-28.75-44.625-.984-6.826-4.74-10.17-9.476-14.925C90.298 322.019 85.235 312.61 82 302l-1.25-3.688c-3.201-18.407.64-35.79 15.25-48.312 7.91-5.505 33.795-20.205 43-11Z"/><path fill="#3b3939" d="M234 39a412.762 412.762 0 0 0 10 4c10.376 4.18 20.633 8.584 30.844 13.152 8.643 3.843 17.373 7.36 26.246 10.637C304 68 304 68 309 71a810.588 810.588 0 0 0 10 4c3.91 1.657 7.798 3.36 11.688 5.063 11.604 5.09 11.604 5.09 23.312 9.937 6.907 9.415 5.637 20.101 5.488 31.32-.01 2.071-.016 4.142-.021 6.213-.02 5.422-.068 10.843-.124 16.265-.051 5.544-.074 11.088-.099 16.632A6797.927 6797.927 0 0 1 359 193h2c.109 2.687.186 5.374.25 8.063l.14 4.535c-.711 8.022-5.049 12.443-10.64 17.902l-3.266 3.219a215.305 215.305 0 0 1-7.14 6.428c-4.626 4.103-8.986 8.386-13.332 12.779l-2.5 2.511c-2.61 2.623-5.218 5.249-7.825 7.875a9611.039 9611.039 0 0 1-10.363 10.426c-.79.8-1.581 1.598-2.396 2.421-7.992 8.028-7.992 8.028-13.928 6.841a187.85 187.85 0 0 1-8.313-3.813l-4.363-2.082C274 268 274 268 274 264c2.414-1.457 2.414-1.457 5.625-2.813 11.114-5.197 15.17-13.251 16.938-25 1.218-8.078 1.218-8.078 3.437-9.187l4.875-.375c5.264-.21 5.264-.21 9.125-3.625.59-5.354.59-5.354-4-9-.469-2.91-.469-2.91-.5-6.063.225-6.172.225-6.172-4.5-8.937-5.072-1.268-9.771-1.247-15-1.313l-5.938-.113c-5.403-.094-5.403-.094-9.062 4.426-.312 4.999-.215 9.139 1 14-1.895 3.79-7.176 4.601-11 6l-3.86 1.441-4.015 1.434-3.805 1.367c-6.672 1.523-10.036-3.807-14.32-8.242l-2.438-2.375c-2.237-2.292-4.321-4.73-6.375-7.188-7.444-8.324-17.791-10.359-28.187-13.437l.316 4.27.246 5.542.317 5.52C202 215 202 215 197.902 217.074c-9.258 1.749-18.058 2.141-27.464 2.176-2.067.03-2.067.03-4.174.063-9.133.034-17.426-1.01-26.264-3.313l1 11c-3.4 0-4.229-2.314-6-5l-.008-3.422c-1.582-5.706-5.444-5.913-10.804-7.766-9.83-3.454-9.83-3.454-14.188-7.812-2.983-29.405-1.34-73.468 24.125-92.313 17.105-7.448 36.51-4.362 51.875 5.313 5.45 4.182 8.976 7.835 12 14l2 4v6c6.287-3.444 6.287-3.444 12.313-7.313 9.305-4.258 17.714-1.434 26.437 2.813l2.877 1.376c2.805 1.35 5.59 2.73 8.373 4.124l4.414 2.2c2.6 1.304 5.196 2.615 7.79 3.933 5.221 2.568 10.556 4.843 15.901 7.14 5.011 2.222 9.884 4.679 14.77 7.16 5.036 2.525 10.19 4.75 15.378 6.942 3.96 1.718 7.861 3.535 11.763 5.383l4.539 2.144 9.437 4.47 4.524 2.136 4.133 1.957c3.247 1.56 3.247 1.56 6.351 2.535.161-11.73.229-23.456.232-35.187.005-3.993.045-7.981.1-11.974.076-5.733.075-11.461.059-17.194l.121-5.424c.308-8.555.308-8.555-3.958-15.34-3.167-1.333-6.204-2.136-9.554-2.881-3.027-1.33-6.048-2.674-9.063-4.031l-4.914-2.207-10.046-4.524c-10.35-4.65-10.35-4.65-20.793-9.082-3.826-1.591-7.468-3.222-11.122-5.156-5.254-2.69-10.602-4.823-16.152-6.824C261 66 261 66 256 63a156.433 156.433 0 0 0-5.824-2.23c-7.859-2.956-15.404-6.492-22.988-10.083l-4.159-1.955A4631.18 4631.18 0 0 1 213 44l.02 2.765c.066 9.456.112 18.912.145 28.369.015 3.534.035 7.068.061 10.602.037 5.066.054 10.131.067 15.198.015 1.591.03 3.183.047 4.823v4.428l.02 3.923L213 117l-3 1a3526.48 3526.48 0 0 1-.44-33.478c-.04-3.797-.094-7.595-.164-11.392-.096-5.454-.142-10.906-.177-16.36l-.125-5.159c-.005-11.762-.005-11.762 4.74-16.183 8.678-2.975 12.37-1.001 20.166 3.572Z"/><path fill="#fcd52b" d="M396 234c.455 18.245.834 36.49 1.117 54.738.133 8.473.293 16.945.512 25.417.21 8.176.353 16.35.447 24.528.048 3.12.121 6.24.219 9.359.746 24.485.746 24.485-4.272 30.565-3.688 2.146-6.917 3.294-11.023 4.393a132.005 132.005 0 0 0-6.246 3.422c-2.063 1.111-4.127 2.22-6.192 3.328l-3.38 1.818a1614.091 1614.091 0 0 1-21.87 11.495c-8.806 4.555-17.45 9.355-26.063 14.264C295.23 431 295.23 431 292 431a4144.86 4144.86 0 0 1-.88-51.062c-.09-7.906-.21-15.808-.402-23.712-.186-7.632-.287-15.26-.33-22.894a418.814 418.814 0 0 0-.185-8.723c-.78-25.668-.78-25.668 9.963-32.73 2.905-1.381 5.85-2.68 8.834-3.879 4.19-2.31 8.278-4.75 12.336-7.285l2.947-1.84 3.092-1.938 3.238-2.027A1716.375 1716.375 0 0 0 357 258l5.664-3.695 3-1.957c3.898-2.544 7.798-5.085 11.698-7.627 2.385-1.556 4.765-3.117 7.146-4.678l3.805-2.48 3.238-2.122C394 234 394 234 396 234Z"/><path fill="#14bef4" d="M213 44c4.148 1.36 8.12 2.862 12.105 4.645l3.483 1.552 3.6 1.615 3.54 1.58c19.555 8.736 19.555 8.736 25.334 11.67 3.558 1.75 7.145 3.233 10.836 4.672 5.577 2.276 11.05 4.791 16.54 7.266a245.263 245.263 0 0 0 9.03 3.75c9.377 3.814 18.513 8.162 27.7 12.406 7.55 3.474 15.1 6.8 22.832 9.844 2 2 1.117 6.132 1.114 8.733v5.035l-.016 5.486-.005 5.578c-.004 4.904-.013 9.808-.024 14.712-.01 5-.015 10-.02 15-.011 9.82-.028 19.638-.049 29.456-4.8-.96-8.187-2.354-12.574-4.457l-4.463-2.123-4.65-2.232C318.288 173.869 309.318 169.64 300 166a209.5 209.5 0 0 1-6.125-3.063c-6.362-3.232-12.817-6.234-19.313-9.187-15.749-7.171-31.402-14.548-46.82-22.41-4.434-2.167-7.51-3.34-12.492-3.34H211c-1.63-3.26-1.17-6.428-1-10l2-1c.336-3.058.336-3.058.319-6.815l.06-4.428.035-4.823.059-4.906c.06-5.197.106-10.394.152-15.59.038-3.513.077-7.025.117-10.538.096-8.633.181-17.266.258-25.9Z"/><path fill="#514099" d="M188.875 285.563c2.647 4.282 4.333 8.741 6.125 13.437l2 3c4.15 20.446 2.582 34.68-11.5 50.875-7.935 6.745-18.694 7.405-28.688 7.375l-5.167.016c-4.032-.231-6.946-.74-10.645-2.266 5.46 15.122 15.2 23.977 28 33 7.752 5.628 7.752 5.628 10 9-12.788-.573-23.116-5.08-33-13l-2.523-1.922c-8.68-7.104-15.12-16.52-17.79-27.453-2.218-6.082-5.619-8.166-10.874-11.715C112 344 112 344 109 341l-2 2-2-5a99.984 99.984 0 0 0-4.563-4.938C91.9 323.882 85.659 314 82 302l-1.25-3.688c-2.999-17.243.313-31.957 11.75-45.437C96 250 96 250 102 250l5-2c34.313-5.279 60.88 11.547 81.875 37.563Z"/><path fill="#f9b042" d="m110 180 .043 4.89.144 6.36.018 3.223c.082 5.932.082 5.932 2.768 11.03 4.017 1.986 8.074 3.627 12.277 5.185 8.672 3.234 8.672 3.234 9.75 4.312l.375 3.375c.312 3.888.312 3.888 3.625 6.625v2c-4.24 1.79-8.135 2.23-12.688 2.563-3.408.363-3.408.363-6.312 1.437-1.842 4.358-1.842 4.358-3 9-3.875 2.063-3.875 2.063-9 4-15.54 8.235-25.656 19.375-27.336 37.656C80.425 305.165 90.59 322.59 107 339l.75 5.188c1.864 12.035 6.868 22.243 14.25 31.812l1.922 2.527c5.977 7.112 14.1 11.914 22.078 16.473-4.42 4.42-9.196 7.228-14.563 10.313a375858804.32 375858804.32 0 0 1-8.835 5.153C112.03 415.73 112.03 415.73 105 424c-4.53-.565-8.034-1.758-12.121-3.773l-3.55-1.735-3.766-1.867-7.848-3.84-3.942-1.937a1766.64 1766.64 0 0 0-16.148-7.786l-2.82-1.35a894.523 894.523 0 0 0-20.04-9.274C32 391 32 391 29 388c3.604-2.043 7.208-4.084 10.813-6.125l3.044-1.727A3137.96 3137.96 0 0 1 52 375l3.11-1.769C62.66 369 62.66 369 66 369l-.027-4.602c-.081-14.33-.141-28.661-.18-42.992-.021-7.367-.05-14.733-.095-22.1a4573.35 4573.35 0 0 1-.078-21.339c-.007-2.71-.021-5.42-.043-8.13-.03-3.804-.033-7.607-.031-11.41l-.044-3.377C65.54 247.82 67.17 242.592 70 236c.09-8.52.09-8.52-5-15-.696-15.774 17.178-24.332 28.813-31.813A669.89 669.89 0 0 1 99 186l2.863-1.758C108.838 180 108.838 180 110 180Z"/><path fill="#b0d461" d="M202 195c16.303 2.835 25.135 7.846 35 21a251.893 251.893 0 0 0 8 7l3 3c5.838-1.24 11.281-3.07 16.875-5.125C270 219 270 219 275 218l-.5-2.375c-1.642-11.905-1.642-11.905 1.344-16.402 4.655-3.279 8.404-2.814 14.031-2.723l5.805.031c5.74.506 10.17 1.319 14.32 5.469.193 3.016.38 6.034.46 9.055.357 3.52.357 3.52 4.54 6.945 0 5 0 5-1.75 7.25-4.976 2.68-9.629 2.503-15.25 2.75l-.375 4.938c-1.147 11.787-4.059 21.27-14.625 28.062-2.997 1.34-5.996 2.675-9 4l-1 2c-6.637 1.59-13.219 2.34-20 3l-2 1c-9.69 1.384-13.813-1.357-21.152-7.617-2.866-2.585-2.866-2.585-6.848-4.383l.07 2.473c.506 33.17.506 33.17-6.07 46.527h-2l-1 4c-2 5-2 5-5 7l-.367-3.113c-1.425-12.008-1.425-12.008-3.633-23.887h-2l-1-7h-2l-1-4-4-4-1.813-3.25C182.178 254.877 160.042 243.28 139 240l-1-1c-7.101-.18-13.932.18-21 1 1.234-8.636 1.234-8.636 4.563-10.219 3.93-.893 7.807-1.446 11.812-1.906l4.336-.508L141 227l-1-11c4.736.495 9.327 1.065 14 2 9.379.465 18.798.263 28.182.07 3.162-.058 6.324-.056 9.486-.039 5.648-.262 5.648-.262 10.332-3.031 1.376-6.827.905-13.13 0-20Z"/><path fill="#6d857a" d="M231 405a213.777 213.777 0 0 0 6.5 4.375c7.865 5.165 15.583 10.522 23.291 15.916l2.826 1.975 2.728 1.924a108.358 108.358 0 0 0 5.33 3.413c6.115 3.693 6.115 3.693 7.24 7.467-.417 4.401-.841 8.635-1.915 12.93-5.905 2.46-9.295-.634-14.188-4l-4.558-3.086L254 443a572.55 572.55 0 0 0-5.75-3.625c-12.855-8.163-25.504-16.98-37.438-26.438-3.469-3.005-3.469-3.005-6.812-3.937a6442.72 6442.72 0 0 1 .11 23.224c.01 2.633.024 5.267.04 7.9.025 3.786.036 7.571.045 11.356l.032 3.568c0 7.044-.041 11.766-5.227 16.952-6.385.837-9.824.012-14-5v-8c-2.53-1.433-2.53-1.433-6-2-6.378-2.69-12.532-5.753-18.707-8.871-6.305-3.127-12.667-6.134-19.034-9.133A259.401 259.401 0 0 1 124 430c3.417-3.417 5.905-5.3 10.008-7.637 1.15-.66 2.302-1.318 3.488-1.998l3.629-2.053 3.652-2.087c8.674-4.95 8.674-4.95 11.223-6.225.41-3.325.746-6.66 1-10 3.912.412 7.571.87 11.341 2.018 6.21 1.667 12.451 1.36 18.846 1.357l4.319.017c10.06-.076 18.888-1.234 28.56-4.103 5.575-.41 7.078 1.86 10.934 5.711Z"/><path fill="#514099" d="M222 274c16.345 4.995 29.72 15.472 35 32l2 4c2.669 15.156 3.481 29.519-8.125 41.125-7.778 5.073-15.143 5.009-23.813 2.375-12.803-3.794-22.64-.374-34.73 3.969C188 359 188 359 186 359c0-3.863 4.208-5.786 7-8h2l2-5a210.028 210.028 0 0 1 4-5c3.44-5.732 4.457-10.812 5.84-17.285C208 320 208 320 212 316c1.017-2.66 2.02-5.326 3-8h2c2.528-7.724 3.623-15.107 4.188-23.188l.248-3.173c.197-2.546.382-5.092.564-7.639Z"/><path fill="#fcd52b" d="M361 204c11.322 2.264 28.538 9.846 33 21l-4.707 2.516c-6.465 3.527-12.725 7.35-18.98 11.234l-3.459 2.14a6245.83 6245.83 0 0 0-6.788 4.207c-2.592 1.61-5.188 3.214-7.785 4.817-7.582 4.702-15.042 9.556-22.449 14.527-11.76 7.853-23.715 15.406-35.687 22.93L290 290l-3.488 2.16c-2.773 1.66-2.773 1.66-3.512 4.84-4.93-1.233-8.825-3.424-13.313-5.813l-4.988-2.644a304.792 304.792 0 0 1-8.367-4.68c-3.372-1.885-6.772-3.368-10.332-4.863a621.294 621.294 0 0 1-8-3.938l-4.063-2.027L230 271l-3.973-1.988C223 267 223 267 222.563 262.75L223 259c4.641 1.856 6.907 3.469 10.625 6.625 6.16 4.758 9.727 5.355 17.375 4.375l2-1a202.98 202.98 0 0 1 6.688-1.063l3.636-.535c7.71-.844 11.868-.207 18.801 3.536 4.53 2.427 7.805 4.048 12.875 5.062 3.615-2.862 6.744-5.752 10-9l3.96-3.934c5.33-5.32 10.625-10.673 15.912-16.034 2.278-2.308 4.562-4.61 6.847-6.91l4.092-4.144C339 233 339 233 341 233l1-3 8-7c6.133-5.89 10.008-10.21 11-19Z"/><path fill="#3b3939" d="M195 128c-3.555 7.11-18.827 9.08-26 10-20.885 1.115-20.885 1.115-26-4-5.035.239-5.035.239-9 3-.206 3.257-.206 3.257-.063 6.938.161 6.767.161 6.767-.937 10.062-.087 4.478-.115 8.94-.098 13.418l.005 4.023c.005 4.249.018 8.498.03 12.746A15772.735 15772.735 0 0 0 133 214l-4.683-1.436c-5.24-1.626-5.24-1.626-10.395-2.584-6.943-5.276-4.96-13.523-4.672-21.667.015-1.7.03-3.4.047-5.15.178-9.697 1.09-18.956 2.975-28.469.705-3.577 1.245-7.144 1.728-10.756.733-4.947 2.01-9.324 4-13.938 5 2 5 2 6 3 2.666.041 5.334.042 8 0v-2l-4-2c-3.375-2.313-3.375-2.313-6-5 10.869-27.172 54.052-10.533 69 4Z"/><path fill="#f9b042" d="M157 400h2v5l4.383.621 5.742.817 5.695.808c3.733.543 7.46 1.134 11.18 1.754v50c-5-1-5-1-10-4l-3.375-1.25C155.815 447.39 139.74 438.625 124 430c3.417-3.417 5.905-5.3 10.008-7.637 1.15-.66 2.302-1.318 3.488-1.998l3.629-2.053 3.652-2.087c8.674-4.95 8.674-4.95 11.223-6.225.41-3.325.746-6.66 1-10Z"/><path fill="#dbd2cb" d="m110 180 .043 4.89.144 6.36.018 3.223c.082 5.932.082 5.932 2.768 11.03 4.017 1.986 8.074 3.627 12.277 5.185 8.672 3.234 8.672 3.234 9.75 4.312l.375 3.375c.312 3.888.312 3.888 3.625 6.625v2c-4.24 1.79-8.135 2.23-12.688 2.563-5.744.684-5.744.684-8.562 6L117 240c-2.258 2.258-5.094 1.358-8 1-2.54-1.672-5.079-3.355-7.516-5.176C95.78 231.635 91.121 229.407 84 230c6.705-5.03 14.888-5.58 23-7l-2.75-3.5c-2.932-4.06-5.147-7.97-7.25-12.5-2.46 2.197-2.46 2.197-4 7-3.957 1.66-3.957 1.66-8.813 3.063-6.445 1.77-6.445 1.77-12.011 5.246L70 224c-4-2-4-2-5-3 0-17.43 20.763-26.95 34-35l2.863-1.758C108.838 180 108.838 180 110 180Z"/><path fill="#fcd52b" d="M80 303h2v3h2a1354.48 1354.48 0 0 1 4.238 8.637c3.844 7.338 8.822 13.448 14.637 19.3 4.183 4.52 5.146 7.985 5.73 14.028.426 3.27 1.33 5.965 2.52 9.035 1.875 5 1.875 5 1.875 9-2.167 1.363-4.35 2.701-6.59 3.941-6.136 3.705-11.789 8.145-17.531 12.426C85 385 85 385 82 385v2h-2v-84Z"/><path fill="#f9b042" d="M216 63c3.615.904 6.474 2.048 9.832 3.617l3.42 1.59 3.56 1.668c7.882 3.677 15.763 7.284 23.793 10.625l3.582 1.5 3.606 1.5C267 85 267 85 271 88v4c-5.2-.615-9.557-2.293-14.375-4.313l-4.336-1.8C248.12 84.052 244.056 82.074 240 80c-1.148 6.015-1.148 6.015-1 12 3.854 2.208 3.854 2.208 9 3 2.723 1.203 5.445 2.408 8.137 3.68 1.979.912 3.984 1.768 6.008 2.578 3.043 1.242 3.043 1.242 7.855 3.742v5c-4.615-.923-7.851-2.182-12.063-4.188l-4.019-1.906a548.798 548.798 0 0 1-10.168-5.094c-5.448-2.76-10.974-4.836-16.75-6.812v5l-2 3c7.583 4.162 15.027 8.127 23.133 11.18l3.492 1.32 3.29 1.219C258 115 258 115 263 118l3.813 1.375L270 121v5c-9.625-2.875-9.625-2.875-13-4l-3 1a555.795 555.795 0 0 1-8.617-3.672c-3.298-1.295-6.419-2.11-9.883-2.828-6.595-1.381-12.33-3.805-18.5-6.5l-4-1c-.502-2.956-.502-2.956-.496-6.887l-.002-4.283.06-4.517-.021-4.46C212.619 75.67 212.619 75.67 216 71l5 1 1-2-5-2-1-5Z"/><path fill="#fcd52b" d="M141 310c4.438 3.25 4.438 3.25 8 7-1.884 4.71-4.079 7.91-7 12-6.352 15.88-2.908 31.556 7 45 5.768 6.852 12.692 11.906 20 17 7.752 5.628 7.752 5.628 10 9-12.788-.573-23.116-5.08-33-13l-2.523-1.922c-17.168-14.051-21.919-33.8-18.727-55.078 6.838-21.882 6.838-21.882 16.25-20Z"/><path fill="#6d857a" d="M395 224c1.107 5.168 1.528 8.574-2.531 12.363-4.08 2.686-8.26 5.158-12.469 7.637-3.649 2.339-7.259 4.736-10.875 7.125-15.776 10.295-31.583 20.557-47.68 30.344-2.117 1.326-4.164 2.763-6.195 4.219C312 288 312 288 307.812 290.313L303 293l-3.137 1.707c-8.045 4.765-10.47 8.004-11.863 17.293-2-4-2-4-4-9a398.489 398.489 0 0 0-3-6h2l1-4c3.148-2.375 3.148-2.375 7.375-5l4.684-2.941c1.63-1.01 3.26-2.02 4.941-3.059a5770.03 5770.03 0 0 0 9.438-5.938l4.828-3.039c4.517-2.885 8.975-5.842 13.421-8.836 15.884-10.644 32.231-20.563 48.563-30.5 1.208-.735 2.417-1.47 3.662-2.229l3.416-2.071 3.028-1.837C393.412 224 393.412 224 395 224Z"/><path fill="#dbd2cb" d="M242 284c15.848 3.962 29.697 12.321 35.116 28.29.95 3.985 1.143 7.49 1.15 11.585l.007 4.484-.023 4.641.023 4.64-.007 4.485-.007 4.07c-.52 7.654-2.517 14.514-9.322 18.68C266 366 266 366 263 366l.5-3.063c.425-4.2.666-8.283.75-12.5l.078-3.753c-.126-3.7-.126-3.7-1.758-6.856-2.59-6.315-2.677-13.122-3.21-19.873-1.016-10.592-3.863-19.93-11.048-28.017-2.283-2.614-4.385-5.047-6.312-7.938Z"/><path fill="#6d857a" d="M397 376c.538 6.456.283 8.33-5 12a204.33 204.33 0 0 1-5.375 3.563l-2.71 1.753C381 395 381 395 377.706 396.391c-4.448 1.93-8.476 4.32-12.644 6.796-5.98 3.503-11.959 6.838-18.188 9.875-7.22 3.527-14.09 7.513-20.988 11.63-4.895 2.906-9.861 5.637-14.887 8.308l-4.344 2.328c-12.252 6.537-12.252 6.537-15.656 7.672-1.366-6.746-1.366-6.746 0-11 4.737-4.01 10.434-6.326 16-9 4.313-2.272 8.592-4.609 12.875-6.938 2.255-1.21 4.51-2.42 6.766-3.628a1011.31 1011.31 0 0 0 15.984-8.809c6.713-3.755 13.527-7.223 20.426-10.621 6.777-3.439 13.349-7.24 19.949-11.004 10.546-6 10.546-6 14-6Z"/><path fill="#14bef4" d="M194 123c2.51 3.796 3.898 6.59 5 11-12.683 7.927-27.779 10.17-42.5 10.063l-4.844-.028L148 144l-1-7 4.215.14c14.964.287 29.528-.242 42.785-8.14-12.765-14.526-31.387-18.795-50-17-7.958 1.761-14.276 4.553-18 12l4 2c6 4.615 6 4.615 6 7-4.29 2.145-7.497 1.298-11.375-1L122 130c-1.564 5.696-2.566 11.348-3.403 17.183a186.71 186.71 0 0 1-1.333 7.52c-2.205 11.157-2.798 22.005-2.951 33.36l-.104 5.26c-.082 4.225-.151 8.45-.209 12.677-9.931-7.449-3.365-39.039-2-51 2.52-17.781 8.041-38.18 26-46 20.806-4.887 40.654-1.625 56 14Z" opacity="0"/><path fill="#6d857a" d="M154.938 396.813C158 399 158 399 158.483 404.125c-1.008 8.202-7.42 10.538-14.172 14.063l-3.735 2.066a649.748 649.748 0 0 1-7.31 3.978c-3.913 2.118-7.712 4.403-11.517 6.705-4.248 2.557-7.729 3.973-12.75 4.063l-2-4h-2v-6l-2-1h2l1-4c3.07-2.262 3.07-2.262 7.125-4.688l4.383-2.648L122 410l8-4.813 3.715-2.203c2.662-1.608 5.265-3.313 7.847-5.046 4.67-2.632 8.228-2.188 13.375-1.125Z"/><path fill="#dbd2cb" d="m289.875 196.5 5.805.031c5.74.506 10.17 1.319 14.32 5.469.193 3.016.38 6.034.46 9.055.357 3.52.357 3.52 4.54 6.945 0 5.833-.252 6.14-5 9-11.984 3.35-18.896-.392-28-8l-4.25-2.938c-5.112-3.833-4.193-7.927-3.75-14.062 4.107-6.221 8.86-5.613 15.875-5.5Z"/><path fill="#f9b042" d="M213 44c4.218 1.406 8.075 2.842 12.105 4.645l3.483 1.552 3.6 1.615 3.54 1.58C256.648 62.739 256.648 62.739 263 66c-3 1-3 1-8-1 3.42 3.842 3.42 3.842 6 5v2l2.625.875c3.696 1.232 6.348 2.675 9.375 5.125v4c-7.38-1.121-13.193-2.803-20-6l-5-1v2c-6.554-2.049-12.629-4.581-18.813-7.563l-4.957-2.378A852.215 852.215 0 0 1 216 63c.646 4.59.646 4.59 6 7l-1 3-5-2-1 4-2 2V44Z"/><path fill="#514099" d="M435 386v2a371.614 371.614 0 0 1-10 5l-5 3-3.438 1.188c-5.287 2.1-9.938 4.847-14.804 7.777C398 407 398 407 393.557 408.738c-6.244 2.542-12.206 5.461-18.221 8.496l-3.609 1.809c-3.786 1.899-7.569 3.803-11.352 5.707l-7.55 3.79c-4.817 2.416-9.633 4.834-14.447 7.255A9275.98 9275.98 0 0 1 316 447a91553.016 91553.016 0 0 0-19.63 9.818 6552.393 6552.393 0 0 1-21.526 10.725l-9.344 4.644-4.781 2.366-4.625 2.302-4.135 2.052c-4.09 2.088-4.09 2.088-8.276 4.88-4.442 2.669-5.213 2.536-9.683.213l-3.734-1.77c-1.988-1.01-1.988-1.01-4.016-2.043l-4.254-2.156L218 476c-1.895-.94-3.79-1.877-5.688-2.813-3.168-1.607-6.265-3.359-9.312-5.187v-4c3.982 1.593 7.59 3.297 11.367 5.293l3.684 1.908c2.548 1.324 5.09 2.66 7.625 4.008l3.691 1.896 3.347 1.755c7.15 2.48 12.45-.713 18.724-4.173a737.816 737.816 0 0 1 22.75-11.812l3.116-1.552a9542.76 9542.76 0 0 1 5.994-2.98c3.57-1.775 7.137-3.558 10.702-5.343l3.754-1.875c3.322-1.663 6.642-3.33 9.96-5 9.072-4.558 18.14-9.099 27.349-13.375a269.45 269.45 0 0 0 15.062-7.563c7.32-3.968 14.799-7.546 22.32-11.113 8.242-3.912 16.407-7.966 24.555-12.074l4.008-1.988a731.15 731.15 0 0 0 23.98-12.446c4.18-2.174 5.318-2.74 10.012-1.566Z"/><path fill="#f9b042" d="M213 109c5.66.377 9.9 2.31 14.973 4.738 4.19 1.747 8.437 2.587 12.87 3.5 3.085.745 5.81 1.758 8.72 3.012 4.305 2.195 4.305 2.195 8.437.75 4.607.761 8.405 1.969 12 5 .789 4.875.063 9.21-1 14-5.241 0-8.189-1.075-13-3-3.412-1.28-6.167-2.016-9.813-2.375C242 134 242 134 237.813 132.062 230.29 128.84 222.899 128 214.75 128H211c-1.63-3.26-1.17-6.428-1-10l2-1c.409-2.656.745-5.325 1-8Z"/><path fill="#b0d461" d="M223 267c4.604 1.842 9.07 3.841 13.563 5.938l4.503 2.09C245 277 245 277 249 280a608.701 608.701 0 0 0 7 3c3.222 1.64 6.43 3.31 9.625 5l4.977 2.625c10.72 5.788 14.947 9.893 15.398 22.375l.188 5.063C286 323 286 323 285 327.438c-1.165 5.313-1.06 10.126-1 15.562-.464 14.327-.464 14.327-4 19-5 2-5 2-10 2l2.938-3.625c5.676-8.11 4.28-17.526 4.312-27.125l.063-4.578c.051-14.744-2.05-26.053-15-34.86-1.758-.963-3.53-1.899-5.313-2.812l-3.098-1.629c-5.745-2.976-5.745-2.976-11.773-5.289-3.884-1.343-7.328-3.19-10.941-5.144l-4.02-2.16c-4.16-2.335-4.16-2.335-4.23-6.34L223 267Z"/><path fill="#3b3939" d="M108 340c2.672 1.992 5.338 3.994 8 6l4.75 3.125c4.478 4.083 5.523 6.824 7.117 12.555C134.221 380.302 150.77 392.47 169 398l5.875.5c5.029.49 6.755.897 10.125 4.5-17.497 5.832-43.638-7.598-56.875-18.938C115.914 372.036 107.095 357.437 108 340Z"/><path fill="#b0d461" d="M96 204c3 4 3 4 5.5 9.063 2.167 4.916 2.167 4.916 5.5 7.937v2c-2.598 1-2.598 1-6.063 2l-3.578 1.047L94 227l-4.313 1.25L87 229l2.813.063C97.209 230.718 103.01 235.507 109 240l4 2c-7.78 3.813-11.687 2.371-19-1.75-7.757-4.236-15.63-7.46-24-10.25-1.063-2.75-1.063-2.75-1-6 5.218-6.088 13.299-8.364 21-9.688 4.705-2.058 4.85-5.578 6-10.312Z"/><path fill="#dbd2cb" d="M110 180c0 5 0 5-5 8-6.77 5.219-6.77 5.219-8.375 13.188-1.261 11.73-1.261 11.73-7.68 14.667l-4.82 1.333c-6.414 1.688-6.414 1.688-11.945 5.113L70 224c-4-2-4-2-5-3 0-17.43 20.763-26.95 34-35l2.863-1.758C108.838 180 108.838 180 110 180Z"/><path fill="#3b3939" d="M279 377c.135 2.895.232 5.79.313 8.688l.175 4.886c-.558 5.06-1.554 6.362-5.488 9.426l-1 1c-2.412.18-4.831.268-7.25.313l-4.016.113c-6.582-.75-9.619-4.863-12.734-10.426-.75-3.375-.75-3.375-1-6h2v-2h2v-2l3.438-.113C263.361 380.54 271.658 377 279 377Z"/><path fill="#514099" d="M134 143c3.563 2 3.563 2 7 5-.277 3.47-.277 3.47-1 8-.092 3.836-.14 7.653-.133 11.488l-.003 3.327c0 2.32.001 4.641.006 6.962.005 3.486 0 6.973-.007 10.46-.003 12.952.276 25.833 1.137 38.763-3.4 0-4.229-2.314-6-5-.688-3.75-.688-3.75-1-7l-1-1c-1.225-13.836-1.128-27.809-1.188-41.688l-.039-4.946c-.006-8.4.366-16.166 2.227-24.366Z" opacity="0"/><path fill="#fcd52b" d="M70 230c7.143 1.299 13.323 3.715 19.813 6.875l2.81 1.316c4.625 2.221 7.705 4.137 11.377 7.809l-4.563 3c-8.596 6.067-12.64 12.235-16.437 22h-3c-.029-4.604-.047-9.208-.063-13.813l-.025-3.97-.01-3.799-.016-3.507C80 243 80 243 81 240l-5-1c-6-6.226-6-6.226-6-9Z"/><path fill="#dbd2cb" d="M201 153c15 0 15 0 21 6v2l-4 1c1.725 4.811 1.725 4.811 4 8 0 5 0 5-4 8-4.11.73-4.11.73-8.75 1.188L201 180v-27Z"/><path fill="#f9b042" d="M207 409c10.135.553 17.064 5.934 24.938 11.773 8.722 6.342 17.859 12.101 26.937 17.914C276 449.75 276 449.75 276 453c-6.492 1.298-7.763-.341-13.125-4l-4.586-3.086L254 443a638.861 638.861 0 0 0-5.75-3.625C207 413.182 207 413.182 207 409Z"/><path fill="#6d857a" d="M113 364c2.902 3.386 4.294 5.735 6 10l-3.445 1.633c-4.733 2.46-9.023 5.24-13.43 8.242C84.115 396 84.115 396 80 396v-9h2v-2a338.293 338.293 0 0 1 7-4 559.281 559.281 0 0 0 8.625-6.063C110.109 366 110.109 366 113 366v-2Z"/><path fill="#f9b042" d="M233 116c6.94.347 12.113 2.111 18.3 5.04 2.884 1.306 2.884 1.306 6.7-.04 4.475.894 8.354 2.22 12 5 .25 5.813.25 5.813-1 11-5.057-.506-8.509-1.71-13-4l-4.75-1.375c-5.749-1.78-10.183-3.367-15.25-6.625-.438-4.25-.438-4.25 0-8l-3-1Z"/><path fill="#d44e4b" d="M280 363v32h-1v-18l-4.125 2c-6.559 2.676-12.901 2.362-19.875 2 1.181-4.724 3.383-7.915 6-12l2-4c5.884-1.265 10.995-2 17-2Z"/><path fill="#fcd52b" d="M119 229c1.175 5.482-.044 7.073-3 12-6.222 1.524-9.641-1.535-14.516-5.176C95.78 231.635 91.121 229.407 84 230c4.275-3.206 6.847-3.88 12-5l4.688-1.188c7.371-1.388 12.276 1.044 18.312 5.188Z"/><path fill="#f9b042" d="m151 396 1 3c-2.805 2.094-2.805 2.094-6.875 4.5-6.07 3.655-12.069 7.373-18 11.25C110.62 425.46 110.62 425.46 106 427l-1 4v-6l-2-1h2l1-4c3.07-2.262 3.07-2.262 7.125-4.688l4.383-2.648L122 410l8-4.813 3.715-2.203c2.662-1.608 5.265-3.313 7.847-5.046C145 396 145 396 151 396Z"/><path fill="#d44e4b" d="M196 127c2 3 2 3 3 7-12.683 7.927-27.779 10.17-42.5 10.063l-4.844-.028L148 144l-1-7 4.215.14c15.119.29 29.297-.432 42.785-8.14h2v-2Z" opacity="0"/><path fill="#fdfdfd" d="M216 63c3.615.904 6.474 2.048 9.832 3.617l3.42 1.59 3.56 1.668c7.882 3.677 15.763 7.284 23.793 10.625l3.582 1.5 3.606 1.5C267 85 267 85 271 88v4c-12.137-1.496-23.643-8.102-34.2-13.953-5.46-2.94-11.091-5.51-16.73-8.09C217 68 217 68 216 63ZM215 98c8.43 1.752 15.412 5.036 23 9a166.01 166.01 0 0 0 10.137 4.184l3.488 1.316 3.29 1.219C258 115 258 115 263 118l3.813 1.375L270 121v5c-7.37-1.898-13.65-4.74-20.402-8.23-4.468-2.198-9.038-3.927-13.703-5.653-3.766-1.453-7.299-3.29-10.895-5.117l-5.438-2.063C215 103 215 103 214 100l1-2Z"/><path fill="#dbd2cb" d="M223 259c5.006 2.002 8.346 4.326 12.625 7.563 4.86 3.837 4.86 3.837 10.375 6.437v2l4 1c11.295 5.132 22.813 10.902 33 18v3c-4.93-1.233-8.825-3.424-13.313-5.813l-4.988-2.644a304.792 304.792 0 0 1-8.367-4.68c-3.372-1.885-6.772-3.368-10.332-4.863a621.294 621.294 0 0 1-8-3.938l-4.063-2.027L230 271l-3.973-1.988C223 267 223 267 222.563 262.75L223 259Z"/><path fill="#6d857a" d="m120 127 3 3a242.942 242.942 0 0 1-3 8c-.597 3.052-1.022 6.101-1.433 9.183-.574 3.867-1.327 7.67-2.087 11.505-1.743 9.794-2.033 19.445-2.168 29.375l-.103 5.26c-.082 4.225-.151 8.45-.209 12.677-9.556-7.167-3.619-36.432-2.368-48.057 1.342-10.728 3.287-21.326 8.368-30.943Z"/><path fill="#fdfdfd" d="M215 81c5.976 1.195 10.951 3.71 16.375 6.375C237.536 90.377 243.67 93.364 250 96c3.004 1.325 6.003 2.66 9 4l3.02 1.191c3.043 1.246 3.043 1.246 7.98 3.809v5c-4.615-.923-7.851-2.182-12.063-4.188l-4.015-1.906a656.166 656.166 0 0 1-10.234-5.094c-3.526-1.786-6.93-3.3-10.625-4.75a157.59 157.59 0 0 1-12.188-5.562l-3.383-1.719C215 85 215 85 215 81Z"/><path fill="#d44e4b" d="M36 388c2.658 1.112 5.28 2.31 7.875 3.563l4.055 1.94c4.194 2.066 8.376 4.151 12.554 6.247 8.595 4.304 17.237 8.505 25.891 12.688l8.773 4.246 3.85 1.86c1.671.81 3.34 1.625 5.002 2.456v3c-4.336-.867-7.127-1.862-11.023-3.773l-3.56-1.735-3.792-1.867-7.875-3.84-3.96-1.937a2196.262 2196.262 0 0 0-16.165-7.786l-2.819-1.35a895.8 895.8 0 0 0-20.04-9.274C32 391 32 391 29 388c1.922-1.922 4.594-.55 7 0Z"/><path fill="#b0d461" d="M146 374c4.7 1.175 6.383 3.334 9.66 6.746 4.068 3.918 8.725 7.019 13.34 10.254 7.752 5.628 7.752 5.628 10 9-8.141-.365-15.845-1.996-23-6l-1-4-4-2-1-5-3-1c-1-2-1-2-1-8Z"/><path fill="#14bef4" d="M186 424h5l1 48c-8.11-5.407-7.127-5.04-6.879-14.504l.147-5.869.17-6.19.158-6.2c.13-5.08.265-10.158.404-15.237Z"/><path fill="#6d857a" d="m109 240 4 2c-7.806 3.827-11.76 2.34-19.125-1.75-4.71-2.575-9.403-5.016-14.313-7.188L75 231v-1c15.017-1.519 21.97.978 34 10Z"/><path fill="#dbd2cb" d="M110 185v19l-5.938.375c-4.416-.15-4.416-.15-7.062 2.625-1.77-5.312-2.039-9.442 1.125-14.188C106.111 185 106.111 185 110 185Z"/><path fill="#d44e4b" d="M125 428c7.382 2.253 14.097 5.297 21 8.688l6.652 3.23 3.27 1.591c5.46 2.644 10.96 5.206 16.457 7.772L176 451l4.402 2.031C184 455 184 455 185 458c-8.945-.917-16.803-5.88-24.707-9.871-6.305-3.127-12.667-6.134-19.034-9.133A259.401 259.401 0 0 1 124 430l1-2Z"/><path fill="#14bef4" d="M255 65c20.708 3.54 20.708 3.54 27 9 .873 4.555.08 7.37-1 12-4.104-.573-7.067-1.427-11-3l3-1c-1.238-4.952-2.157-4.976-6.563-7.125A93.181 93.181 0 0 1 261 72v-2l-5-2-1-3Z"/><path fill="#d44e4b" d="M212 43c2 1 2 1 2.223 3.885l-.04 3.914-.032 4.419-.069 4.813-.054 4.899c-.042 3.426-.088 6.853-.14 10.28-.075 5.267-.124 10.534-.171 15.802-.044 3.319-.088 6.638-.135 9.957l-.038 4.813-.08 4.42-.052 3.913L213 117l-3 1c-.025-8.954-.043-17.908-.055-26.862-.005-3.048-.012-6.097-.02-9.146-.013-4.371-.018-8.742-.023-13.113l-.015-4.16c0-9.605 0-9.605 1.113-10.719.37-3.663.705-7.33 1-11Z"/><path fill="#fdfdfd" d="M323 139c5.568 1.57 10.339 3.54 15 7 .563 5.813.563 5.813 0 11-5.948-.458-10.29-2.36-15-6-.816-4.261-.434-7.614 0-12Z"/><path fill="#f9b042" d="M322 104c13.929.857 13.929.857 17 7 0 6 0 6-2 8-7.095 1.277-10.404-1.84-15-7-.5-4.438-.5-4.438 0-8Z"/><path fill="#f9b042" d="M210 118c6.183 0 9.548 2.206 15 5l5 1v2l2.438.25c11.807 2.486 11.807 2.486 13.562 7.75-5-1-5-1-10.375-3-8.032-2.754-16.193-3-24.625-3-1.601-3.203-1.057-6.479-1-10Z"/><path fill="#fcd52b" d="M143 133c3.635 3.24 5 4.812 5 9.75-1 3.25-1 3.25-4 5.25-5.29-.115-7.795-1.853-11-6 0-7.449 2.75-9 10-9Z" opacity="0"/><path fill="#dbd2cb" d="M323 121c5.342 2.137 10.87 4.87 15 9 .313 4 .313 4 0 8-6.242 1.56-10.586-1.556-15-6-.688-5.938-.688-5.938 0-11Z"/><path fill="#dbd2cb" d="M254 278a360.673 360.673 0 0 1 11.438 5.813l3.103 1.619c10.83 5.699 10.83 5.699 14.459 8.568v3c-4.93-1.233-8.825-3.424-13.313-5.813l-4.988-2.644a284.374 284.374 0 0 1-8.554-4.805c-3.165-1.925-3.165-1.925-7.145-2.738l-1-3c1-1 1-1 6 0Z"/><path fill="#f9b042" d="m224 128 3 3-4.75.063c-6.236.524-10.44 2.977-15.621 6.343C204 139 204 139 200 140c-1.25-3.25-1.25-3.25-1-7 2.95-1.517 5.841-2.336 9.047-3.176 10.001-2.791 10.001-2.791 15.953-1.824Z"/><path fill="#f9b042" d="M240 128c7.308 1.012 14.054 3.598 21 6l4.938 1.625L269 137v3c-5.35 0-8.049-1.075-13-3a720.715 720.715 0 0 0-10.438-3.035L243 133v-2l-3-3Z"/><path fill="#14bef4" d="M280 363v3c-6.757 3.766-11.316 5.126-19 5 .063-2.938.063-2.938 1-6 3.188-.813 3.188-.813 7-1l3.125-.563C275 363 275 363 280 363Z"/><path fill="#d44e4b" d="M129 125c7 5.508 7 5.508 7 8-2 1-2 1-8 1-7-5.08-7-5.08-7-9 3-2 3-2 8 0Z" opacity="0"/><path fill="#514099" d="M328 188c8.625-.25 8.625-.25 12 2v4c-4.04 1.347-7.768 1.061-12 1v-7Z"/><path fill="#514099" d="M100 253a752.848 752.848 0 0 1-5.25 7l-2.953 3.938C89 267 89 267 85 267c.393-5.307 1.85-7.45 5.813-10.938l2.644-2.402C96 252 96 252 100 253Z"/><path fill="#d44e4b" d="m266 194 2 1c-1 5-1 5-3 6-6 0-6 0-8-2 1.551-6.206 2.908-5.214 9-5Z"/></svg>