<svg xmlns="http://www.w3.org/2000/svg" xmlns:xlink="http://www.w3.org/1999/xlink" viewBox="0 0 400 300" data-imageid="creative-process-9" imageName="Creative Process" class="illustrations_image" style="width: 237px;"><defs><linearGradient id="linear-gradient" x1="328.61" y1="210.49" x2="321.4" y2="217.7" gradientUnits="userSpaceOnUse"><stop offset="0" stop-color="gray"/><stop offset="1" stop-color="#fff"/></linearGradient></defs><title>A_</title><g style="isolation:isolate"><g id="Layer_2" data-name="Layer 2"><path d="M18.25,165.28,153.86,86.41a6.41,6.41,0,0,1,6.41,0L363.05,202.46a6.41,6.41,0,0,1,0,11.12L233.39,288.45a20.93,20.93,0,0,1-20.93,0L18.27,176.37A6.41,6.41,0,0,1,18.25,165.28Z" fill="#f9c60b"/><path d="M152.74,60.53,135,153l-2.57,13.36c-.36,1.89,2.53,2.69,2.89.8l17.78-92.52,2.57-13.36c.36-1.89-2.53-2.69-2.89-.8Z" fill="#42210b"/><path d="M181,24.8h-6.23L123,49.35s14.11,103.3,14.53,103.91,7.95,3.54,7.95,3.54" fill="#f7c19c"/><polyline points="81.91 156.1 81.91 128.75 115.02 128.75 115.02 156.1" fill="#dfdde0"/><ellipse cx="98.47" cy="156.1" rx="16.55" ry="8.11" fill="#dfdde0"/><ellipse cx="98.47" cy="128.75" rx="16.55" ry="8.64" fill="#efefef"/><ellipse cx="98.47" cy="128.75" rx="13.45" ry="6.59" fill="#8cc63f"/><path d="M92.89,133.2l.51,15.26a1.24,1.24,0,0,0,1.24,1.24h.07a1.24,1.24,0,0,0,1.24-1.24V147a1.24,1.24,0,0,1,1.2-1.24h0A1.24,1.24,0,0,1,98.42,147v3.48a1.24,1.24,0,0,0,1.24,1.24h.22a1.24,1.24,0,0,0,1.24-1.24v-6.41a1.24,1.24,0,0,1,1.2-1.24h0a1.24,1.24,0,0,0,1.2-1.24l-.38-7.49A36.43,36.43,0,0,1,92.89,133.2Z" fill="#8cc63f"/><polyline points="256.65 180.74 256.65 153.4 289.76 153.4 289.76 180.74" fill="#dfdde0"/><ellipse cx="273.21" cy="180.74" rx="16.55" ry="8.11" fill="#dfdde0"/><ellipse cx="273.21" cy="153.4" rx="16.55" ry="8.64" fill="#efefef"/><ellipse cx="273.21" cy="153.4" rx="13.45" ry="6.59" fill="#f9551c"/><path d="M267.63,157.85l.51,15.26a1.24,1.24,0,0,0,1.24,1.24h.07a1.24,1.24,0,0,0,1.24-1.24v-1.44a1.24,1.24,0,0,1,1.2-1.24h0a1.24,1.24,0,0,1,1.27,1.24v3.48a1.24,1.24,0,0,0,1.24,1.24h.22a1.24,1.24,0,0,0,1.24-1.24v-6.41a1.24,1.24,0,0,1,1.2-1.24h0a1.24,1.24,0,0,0,1.2-1.24l-.38-7.49A36.43,36.43,0,0,1,267.63,157.85Z" fill="#f9551c"/><polyline points="81.91 193.61 81.91 166.27 115.02 166.27 115.02 193.61" fill="#dfdde0"/><ellipse cx="98.47" cy="193.61" rx="16.55" ry="8.11" fill="#dfdde0"/><ellipse cx="98.47" cy="166.27" rx="16.55" ry="8.64" fill="#efefef"/><ellipse cx="98.47" cy="167.41" rx="13.45" ry="6.59" fill="#999ffa" class="target-color"/><path d="M92.89,171.85l.51,15.26a1.24,1.24,0,0,0,1.24,1.24h.07a1.24,1.24,0,0,0,1.24-1.24v-1.44a1.24,1.24,0,0,1,1.2-1.24h0a1.24,1.24,0,0,1,1.27,1.24v3.48a1.24,1.24,0,0,0,1.24,1.24h.22a1.24,1.24,0,0,0,1.24-1.24v-6.41a1.24,1.24,0,0,1,1.2-1.24h0a1.24,1.24,0,0,0,1.2-1.24l-.38-7.49A36.43,36.43,0,0,1,92.89,171.85Z" fill="#999ffa" class="target-color"/><path d="M325.7,208c-4.78,2.79-8.2,4.66-15.55,8.86,5.57,3.38,9.88,6.49,10.5,6.86l16.86-10C336.23,213,331.65,210.93,325.7,208Z" fill="url(#linear-gradient)" style="mix-blend-mode:multiply"/><polyline points="319.16 195.37 319.16 209.39 341.84 209.39 341.84 195.37" fill="#999ffa" class="target-color"/><ellipse cx="330.5" cy="195.37" rx="11.34" ry="5.58" fill="#311f1d"/><ellipse cx="330.5" cy="209.93" rx="11.34" ry="5.58" fill="#999ffa" class="target-color"/><path d="M343.2,162.78c-2.39-1-5.71-4.24-8.6-4.14a33.89,33.89,0,0,0-1.75,8.6,78.07,78.07,0,0,0-.33,14.36q.1,1.6.26,3.19a2.54,2.54,0,0,0,.25.9q0,5.55,0,11.1a.35.35,0,0,0,.7,0q0-5.34,0-10.67a15.73,15.73,0,0,0,3.25-1.5,11,11,0,0,0,4.57-5.74c1.83-5.1.67-10.78,2.41-15.83C343.7,163,343.45,162.88,343.2,162.78Z" fill="#311f1d"/><path d="M338.29,154.43a8.89,8.89,0,0,0-3.24,3.31,5.56,5.56,0,0,0-.51,1l-.1.21h0a14.82,14.82,0,0,0-.55,1.76,2.19,2.19,0,0,1,1.21-1,3,3,0,0,1,1.89-.17,7.93,7.93,0,0,1,1.74.92c.81.49,1.59,1,2.39,1.55,3.76,2.39,8.76,2.63,11.66-.85,0-.14.07-.28.1-.42C353.31,158.4,346.6,149.6,338.29,154.43Z" fill="#f78f38"/><path d="M351.12,162.68l.47-.31a.32.32,0,0,0-.1-.27c-2.27-2.33-4.71-4.62-7.81-5.77a13.39,13.39,0,0,0-7-.68c-.25.29-.48.6-.71.91a12.12,12.12,0,0,1,8,.67,22.45,22.45,0,0,1,7,5.37A.34.34,0,0,0,351.12,162.68Z" fill="#311f1d"/><path d="M313.05,167.76a9.47,9.47,0,0,0-5.07,9.08c.27,6.69,11.29.16,14.22-5.49s3.39,2.41,3.39,2.41" fill="#311f1d"/><path d="M323,165.42a20,20,0,0,0-6.12.85,14.84,14.84,0,0,0-3.8,1.49,12.28,12.28,0,0,0,2.2,1.17,6.7,6.7,0,0,1,3.56,2.55,5.08,5.08,0,0,1,.42,1c.67,2.2.09,4.87,1,7.08s2.75,4.17,5.35,4.33c3.11.19,4.53-2.79,5.15-5.38s1.45-6.11.47-8.76C330.07,166.68,325.91,165.56,323,165.42Z" fill="#f78f38"/><path d="M327.07,175.86c-1.3-4.23-4.07-8.21-8.11-10.08h-.15l-.19.06-.73.19c4.71,1.75,7.67,6.39,8.88,11.14,1.54,6.07,1,12.65,1,18.86a.33.33,0,0,0,.65,0C328.43,189.4,329,182.29,327.07,175.86Z" fill="#311f1d"/><path d="M179.51,120.35,200,178c.64,1.81,3.54,1,2.89-.8L182.4,119.56c-.64-1.81-3.54-1-2.89.8Z" fill="#42210b"/><polygon points="125.69 50.04 140.46 154.98 192.78 124.2 180.47 24.8 125.69 50.04" fill="#ffe4d2"/><polygon points="140.03 154.98 144.95 156.8 197.86 125.18 197.86 122.63 192.58 122.63 140.03 153.1 140.03 154.98" fill="#363634"/><path d="M147.84,153.26,146,209c-.06,1.93,2.94,1.93,3,0l1.81-55.7c.06-1.93-2.94-1.93-3,0Z" fill="#42210b"/><path d="M158.72,61.7l.49-2.81a3,3,0,0,0-5.47-2.26,2.9,2.9,0,0,0-4.52,1.59l-.64,2.18a2.59,2.59,0,0,0-1.11,1.29c-2.76,6.37-5.22,12.69-4.92,19.74a3,3,0,0,0,1.08,2.2l-.33,1.52a3,3,0,0,0,4.79,3L147.77,90c-.65,3.74,4.91,5.41,5.79,1.6l.83-3.59a2.31,2.31,0,0,0,2.41-2.16l3-21.25A3.19,3.19,0,0,0,158.72,61.7Z" fill="#f9551c"/><path d="M179.67,97.81a68.88,68.88,0,0,0-7-25.63c-1.49-3-5.5-1.13-5.49,1.67a8.93,8.93,0,0,0-1-.28c-3.27-.66-5.3,3.63-2.31,5.48a20.45,20.45,0,0,1,1.94,1.36,2.37,2.37,0,0,0-.16,3.26,16.52,16.52,0,0,1,2.14,16.77c-1.29,3.19,3.84,5.2,5.48,2.31l.06-.12c1.67,1.55,5.33.57,5.14-2.2v-.17A2.48,2.48,0,0,0,179.67,97.81Z" fill="#8cc63f"/><path d="M157.37,100.71a2.92,2.92,0,0,0-2.21-1.14c-5.73-.35-10.41,2.29-10.51,8.52-.07,4.48,1.8,10.41,6.6,11.79,5.31,1.53,10.66-3,11.84-8A9.83,9.83,0,0,0,157.37,100.71Z" fill="#999ffa" class="target-color"/><path d="M253.38,64.3s4.27-2,6.38,2.34-55.87,94.18-55.87,94.18l-3.89-4S227.61,96.51,253.38,64.3Z" fill="#311f1d"/><path d="M214.22,95.45s2.9-.51,3.6-1.46,0-1.48,0-1.48,2.85-1.35,2.42-2.29S217.41,87,215.87,87,209.35,92,209.35,92" fill="#eead97"/><path d="M210.65,224.17a1.1,1.1,0,0,1-1.12,1c-1,.08-10.62-4.05-13,1.55a1.59,1.59,0,0,0,.63,1.94,38,38,0,0,0,15.8,5.74,8.89,8.89,0,0,0,5.69-.72l-.45-10.56Z" fill="#c24327"/><path d="M233.86,219.28s-9-5.86-10.55-2.14c-1.21,2.87,9.53,11.22,13.48,11.88s4.49-3.49,4.49-3.49l-.13-6.81" fill="#c24327"/><path d="M216.28,134s-9,19.38-8.84,89.38c0,0,1.83,4.84,14.83,1.51l5.28-62.51L229.83,220s6.11,4.53,15.6-.91c0,0-2.13-77.17-7.32-91" fill="#999ffa" class="target-color"/><path d="M238.54,130.45c2.25-9.53,6.89-34.14,1.92-37.89-4.33-3.27-14.42.28-22.13,5.49-6.32,4.27-3.74,29.14-2.65,37.77C224.06,136.85,231.86,135.39,238.54,130.45Z" fill="#c24327"/><path d="M240.3,92.51s3.16,1.56,4.39,7,3.3,19.28.05,23-8.82-2-9.23-2.39" fill="#c24327"/><path d="M222,95.88S210.34,102,210,102.09s5.51-4.51,5.51-4.51-.67-8.21-6.77-6.28c0,0-19.65,15.09-8.71,24.56,5.23,4.52,22-2.67,22-2.67" fill="#c24327"/><path d="M219.63,78.65s-.22,12.65,3.31,13a6.5,6.5,0,0,0,6.91-3.6" fill="#eead97"/><path d="M224.74,90v6s3.23,1.24,7.75-1.77V89.38" fill="#eead97"/><path d="M220.27,81s-4.3-4.47-1.49-8.28,6-1.82,6-1.82.66-1.66,4-2,4.63,3,6,3.81S238.14,76,238.31,78,235.49,91.25,232,92.08,224.07,94.23,220.27,81Z" fill="#c24327"/><path d="M200,156.8s-9.53-2.35-12.58,4,1.28,9.59-5.13,13.84-8,2.42-8,2.42,21.54,7.84,29.62-16.26" fill="#f78f38"/><path d="M195.35,174c.86-1.57-.35-1.47-1.63-2.09s-1.48-1.32-2.26-2.43-1-1-2.31-1.1a3.87,3.87,0,0,1-1.89-.55,4.31,4.31,0,0,1-1.1-1.31c-.08,3.08.34,5.43-3.87,8.22-3.5,2.32-5.56,2.82-6.72,2.81C178.87,178.39,187.84,179.91,195.35,174Z" fill="#f9551c"/></g></g></svg>