<svg id="Layer_2" data-name="Layer 2" xmlns="http://www.w3.org/2000/svg" viewBox="0 0 400 300" data-imageid="graduation-3" imageName="Super Woman" class="illustrations_image" style="width: 237px;"><title>141-150</title><ellipse cx="207.62" cy="227.6" rx="131.85" ry="43.74" fill="#b74bad"/><ellipse cx="181.22" cy="241.8" rx="52.57" ry="14.2" fill="#7f247b"/><path d="M152.36,91.16s40.72,32,79.07,31.35c0,0-9.92,7.38,1.42,10.66s26.24-3.53,28.19,3.92-5.83,16.85,5.51,19.12,23,0,23,0-25.27,16-44.06,13.65-80-12.23-86.45-50.46" fill="#999ffa" class="target-color"/><path d="M181.22,174.43c.57-.29,15.47,3.73,15.47,3.73l3.31,7.93-10.09,3.57" fill="#154549"/><path d="M228.53,186c-1.12-.16-9.5-3.33-9.86-4.83s10.22.16,10.22.16l-.46-5.19-53-2.7c2.28.88,4.5,1.93,6.77,2.82,3.74,1.47,7.46,3,11.06,4.74,1.37.68.78,2.49-.39,3A42.36,42.36,0,0,0,177.14,195c6.22-1.45,38.66-8.63,42.5-1.4,1.7,3.2,3.2,11.89,6.22,12.33s3.88-7,4.29-12.16S229.65,186.11,228.53,186Z" fill="#999ffa" class="target-color"/><path d="M204.56,102.84c.91-2.45,1.73-4.93,2.54-7.43,1.14-3.52,2.43-7.22,2.76-11-.65-1.75-3-3.09-4.65-3.48-2.08-.5-4.21.39-6.31.35-2.75,0-4.92-1.13-7.48-1.86a14,14,0,0,0-8,.37c-5,1.53-10,1-14.13-2.27-2.34-1.86-4.16-3.38-7.11-4.16-4.56-1.2-9.27-.35-12.28,3.49-2.71,3.46-3.3,8-.42,11.56,1.46,1.8,3.6,2.58,5.76,3.2,2,.57,3.9,1.76,6,2.13l.23,0c1.94.32,3.87.21,5.82.78,2.43.72,4.67,1.93,7.06,2.78,3.16,1.13,6.23.69,9.48.28,4.14-.52,6.33.76,9.54,3.12l.58.4a13.86,13.86,0,0,0,7.52,2A18.27,18.27,0,0,0,204.56,102.84Z"/><path d="M129.67,75.84c-.72-1.24-1.46-2.57-2.08-3.94a69.87,69.87,0,0,1-.3-7.4,9.68,9.68,0,0,0,0-3.13,1.31,1.31,0,0,0-1.7-1.16A2.74,2.74,0,0,0,124,62.48c-.16.82-.28,1.65-.39,2.48a53.54,53.54,0,0,1-3.31-7.05c-.63-1.53-3.09-.72-2.45.82l.68,1.65a29.9,29.9,0,0,0-2-2.61c-.86-1-2.92-.36-2.31,1.12a42.06,42.06,0,0,0,2.93,5.78q-1.38-1.7-2.65-3.48c-1-1.35-3.13.07-2.16,1.43q1.79,2.5,3.77,4.85c-.74-.35-1.49-.68-2.25-1-1.53-.64-2.72,1.66-1.18,2.3s2.91,1.29,4.33,2l.08.16q3.33,6,6.9,11.84c.87,1.42,3,0,2.16-1.43l-1.09-1.8a1.52,1.52,0,0,0,.93-.73,1.29,1.29,0,0,0,2-1.11A1.34,1.34,0,0,0,129.67,75.84Z" fill="#ffc285"/><path d="M122.28,65.72c-1.44,1.56-2.86,3.43-2.26,5.68.12.45.83.29.71-.17-.53-2,.78-3.61,2-5C123.09,65.91,122.6,65.38,122.28,65.72Z" fill="#6d320b"/><path d="M120.61,64.28a54.76,54.76,0,0,1-2.38-5.83c-.11-.33-.65-.21-.53.13a56,56,0,0,0,2.43,6C120.28,64.86,120.76,64.6,120.61,64.28Z" fill="#6d320b"/><path d="M118.12,65.66a29.19,29.19,0,0,1-3.56-6.89c-.12-.33-.65-.21-.53.13a29.7,29.7,0,0,0,3.61,7C117.84,66.2,118.32,65.95,118.12,65.66Z" fill="#6d320b"/><path d="M116.92,68.43a32.31,32.31,0,0,1-3.71-5.17c-.18-.3-.66,0-.48.26a33,33,0,0,0,3.79,5.28C116.76,69.07,117.15,68.69,116.92,68.43Z" fill="#6d320b"/><path d="M142.34,119.4s-9.74,31.89-5.52,59c2.94,18.88,32.58,20,32.58,20L212,229.39s-3.86,8.82,8.14-6.31c0,0-19-25.61-25.58-32.25s-10.78-28.42-13.34-35.06c-4.67-12.11-16-30.6-17.57-30.84" fill="#38727a"/><path d="M165,113.77c-1.3-6.65-4.3-14.22-1.8-20.5-.27-.87-2.59-1.07-2.89-1.51l-3.91-1.48a29.2,29.2,0,0,1-19.76-8.8,56.87,56.87,0,0,1-8.09-10.58,27.15,27.15,0,0,0-7.06,6,33.36,33.36,0,0,0-2.89,3.8c3.84,8,11.2,19.57,23,24,0,0,.42,4.41.77,14.64,0,0,8.83,8,22.91,5.18C165.18,120.56,165.09,117.78,165,113.77Z" fill="#f77819"/><path d="M161.26,91.56S176.13,106.81,204.2,121c0,0-1.58,8.82-5.29,12.18,0,0-32.41-14.68-39.87-27.79" fill="#f77819"/><path d="M150.08,81s-3.12,9,2.64,13.11,13.57-4.45,11.44-12.49S153.74,73.27,150.08,81Z" fill="#ffc285"/><path d="M164.91,92.86a2.85,2.85,0,0,1-2.65-.79c-.85-.86-.77-2.08-.78-3.2a4.16,4.16,0,0,0-1.88-3.7c-1.51-1-3.41-1.31-4.78-2.57-.14-.13-.28-.27-.41-.42a3.73,3.73,0,0,0,.58.44c2.23,1.35,5.53,1.68,6.57,2.21s-.62,4.64,1.24,6.45,6.25-9.5,3.71-12.57-10.94-6.67-14.58-1.57a13.14,13.14,0,0,0,.37,1.35,6.73,6.73,0,0,0,1.46,3.78c1.36,1.69,3.33,2.07,5.12,3.1a3.64,3.64,0,0,1,2,3,8.87,8.87,0,0,0,.34,3.15,3.38,3.38,0,0,0,3.82,1.82C165.42,93.31,165.25,92.79,164.91,92.86Z"/><path d="M225.56,240c-.67-.91-4.29-9.11-3.47-10.41s7,7.4,7,7.4l3.38-4L197.3,193.37c1,2.24,1.78,4.56,2.73,6.81,1.57,3.7,3.13,7.39,4.37,11.21.48,1.46-1.23,2.3-2.38,1.8-6-2.62-12-4.79-18.51-4.5,5.4,3.42,30,22,30.37,30.34.17,3.62-6.23,10.62-4.43,13.08s7.73-2.15,11.68-5.46S226.23,240.94,225.56,240Z" fill="#999ffa" class="target-color"/><path d="M169.62,198.63c1.74,1.34,3.73,2.33,5.3,3.89a1,1,0,0,0-.15-.27,98.89,98.89,0,0,1-23.69-52.1c-.17-1.27-2.1-.73-1.93.53A100.52,100.52,0,0,0,169,198.4,1.16,1.16,0,0,1,169.62,198.63Z" fill="#154549"/><path d="M149.36,106.07s1.68-5.69,2.58-5.43,1.39,6.36,1.68,6.44c1,.27,4.18.73,4.59,1.49.33.6-4.08,1.86-4.08,1.86s2.37,6.07,1.41,6.56-4.06-4.5-4.62-4.63c-.88-.21-4.1,3.37-4.71,2.32s2-5.56,2-5.56-3.2-2.94-2.77-4.3C145.6,104.31,149.36,106.07,149.36,106.07Z" fill="#999ffa" class="target-color"/><path d="M261,144s-15.76,6.35-40,2.22a124.45,124.45,0,0,0,39.38,4.93S260.56,147.37,261,144Z" fill="#999ffa" class="target-color"/><path d="M231.43,122.51s-19.29.37-36.49-7.43c0,0,20.67,10.47,33.08,11.27Z" fill="#999ffa" class="target-color"/><path d="M289.55,156.21s-22.34,19.52-53,12.19c0,0,29.18,0,44.51-11.27Z" fill="#999ffa" class="target-color"/><path d="M218.66,133.84a42.06,42.06,0,0,0-5.68-3.12q2.09.63,4.15,1.38c1.56.57,2.55-1.82,1-2.4q-2.89-1.06-5.85-1.88c.81-.13,1.61-.28,2.42-.44,1.62-.34,1.31-2.9-.32-2.57s-3.13.58-4.71.78l-.15-.09q-2.77-1.39-5.57-2.71a23.22,23.22,0,0,1-3.51,8,69.92,69.92,0,0,1,4.29,5.77,9.68,9.68,0,0,0,1.74,2.6,1.31,1.31,0,0,0,2.06,0,2.74,2.74,0,0,0,.09-2.8c-.33-.76-.7-1.52-1.07-2.26a53.54,53.54,0,0,1,6.72,4c1.38.91,3-1.14,1.56-2.06l-1.5-1a29.9,29.9,0,0,0,3.1,1C218.67,136.42,220,134.72,218.66,133.84Z" fill="#999ffa" class="target-color"/><path d="M210.35,133a54.76,54.76,0,0,1,5.26,3.47c.28.21.65-.19.37-.4a56,56,0,0,0-5.37-3.55C210.3,132.33,210,132.82,210.35,133Z" fill="#999ffa" class="target-color"/><path d="M211.63,130.45a29.19,29.19,0,0,1,6.83,3.68c.28.2.65-.2.37-.4a29.7,29.7,0,0,0-6.94-3.76C211.55,129.84,211.3,130.33,211.63,130.45Z" fill="#999ffa" class="target-color"/><path d="M211,127.49a32.31,32.31,0,0,1,6,2.18c.32.15.57-.33.25-.49a33,33,0,0,0-6.11-2.22C210.83,126.87,210.71,127.4,211,127.49Z" fill="#999ffa" class="target-color"/><path d="M261,144s-15.76,6.35-40,2.22a124.45,124.45,0,0,0,39.38,4.93S260.56,147.37,261,144Z" fill="#606060" opacity="0.61"/><path d="M231.43,122.51s-19.29.37-36.49-7.43c0,0,20.67,10.47,33.08,11.27Z" fill="#606060" opacity="0.61"/><path d="M289.55,156.21s-22.34,19.52-53,12.19c0,0,29.18,0,44.51-11.27Z" fill="#606060" opacity="0.61"/><path d="M218.66,133.84a42.06,42.06,0,0,0-5.68-3.12q2.09.63,4.15,1.38c1.56.57,2.55-1.82,1-2.4q-2.89-1.06-5.85-1.88c.81-.13,1.61-.28,2.42-.44,1.62-.34,1.31-2.9-.32-2.57s-3.13.58-4.71.78l-.15-.09q-2.77-1.39-5.57-2.71a23.22,23.22,0,0,1-3.51,8,69.92,69.92,0,0,1,4.29,5.77,9.68,9.68,0,0,0,1.74,2.6,1.31,1.31,0,0,0,2.06,0,2.74,2.74,0,0,0,.09-2.8c-.33-.76-.7-1.52-1.07-2.26a53.54,53.54,0,0,1,6.72,4c1.38.91,3-1.14,1.56-2.06l-1.5-1a29.9,29.9,0,0,0,3.1,1C218.67,136.42,220,134.72,218.66,133.84Z" fill="#ffc285"/><path d="M210.35,133a54.76,54.76,0,0,1,5.26,3.47c.28.21.65-.19.37-.4a56,56,0,0,0-5.37-3.55C210.3,132.33,210,132.82,210.35,133Z" fill="#6d320b"/><path d="M211.63,130.45a29.19,29.19,0,0,1,6.83,3.68c.28.2.65-.2.37-.4a29.7,29.7,0,0,0-6.94-3.76C211.55,129.84,211.3,130.33,211.63,130.45Z" fill="#6d320b"/><path d="M211,127.49a32.31,32.31,0,0,1,6,2.18c.32.15.57-.33.25-.49a33,33,0,0,0-6.11-2.22C210.83,126.87,210.71,127.4,211,127.49Z" fill="#6d320b"/><path d="M142.3,118.12l-.71,4s10.59,9,23.66,4.86l0-4.47A27.42,27.42,0,0,1,142.3,118.12Z" fill="#999ffa" class="target-color"/><polygon points="285.51 104.06 290.34 100.93 299.28 106.16 297.33 111.29 285.51 104.06" fill="#fae60b"/><path d="M291.62,127.9l3.22-10.16-9.33-13.68s11.81,7,11.79,7,3.88-9.42,3.88-9.42l4.15,14.47,11.6,7.86-9.13,2,3.29,14.35-9.71-13.38Z" fill="#f9c60b"/><polygon points="305.32 116.07 316.92 123.93 321.87 120.82 310.11 112.86 305.32 116.07" fill="#fae60b"/><polygon points="301.17 101.6 306.06 98.5 310.11 112.86 305.32 116.07 301.17 101.6" fill="#f5b00f"/><polygon points="307.8 125.94 311.09 140.29 315.89 137.1 313.08 124.78 307.8 125.94" fill="#f5b00f"/><polygon points="70.56 72.67 75.39 69.55 84.33 74.78 82.39 79.91 70.56 72.67" fill="#fae60b"/><path d="M76.67,96.52l3.22-10.16L70.56,72.67s11.81,7,11.79,7,3.88-9.42,3.88-9.42l4.15,14.47L102,92.55l-9.13,2,3.29,14.35L86.43,95.52Z" fill="#f9c60b"/><polygon points="90.37 84.69 101.97 92.55 106.92 89.44 95.16 81.48 90.37 84.69" fill="#fae60b"/><polygon points="86.22 70.22 91.11 67.12 95.16 81.48 90.37 84.69 86.22 70.22" fill="#f5b00f"/><polygon points="92.85 94.56 96.14 108.91 100.94 105.72 98.13 93.39 92.85 94.56" fill="#f5b00f"/><polygon points="214.13 36.25 217.31 34.2 223.17 37.63 221.9 41 214.13 36.25" fill="#fae60b"/><path d="M218.14,51.9l2.12-6.67-6.12-9s7.75,4.61,7.74,4.57,2.54-6.18,2.54-6.18l2.72,9.5,7.62,5.16-6,1.32L230.92,60l-6.37-8.79Z" fill="#f9c60b"/><polygon points="227.14 44.13 234.75 49.3 238 47.26 230.28 42.03 227.14 44.13" fill="#fae60b"/><polygon points="224.41 34.64 227.62 32.61 230.28 42.03 227.14 44.13 224.41 34.64" fill="#f5b00f"/><polygon points="228.76 50.61 230.92 60.03 234.07 57.94 232.23 49.85 228.76 50.61" fill="#f5b00f"/></svg>