<svg width="500" height="500" viewBox="0 0 500 500" fill="none" xmlns="http://www.w3.org/2000/svg">
    <g clip-path="url(#clip0_1_2)">
        <path fill-rule="evenodd" clip-rule="evenodd"
            d="M418.712 106.389C414.164 101.891 407.901 99.1283 401.001 99.1647L97.7809 100.762C83.974 100.834 72.8401 112.086 72.9129 125.893L74.3273 394.356C74.4447 416.641 101.457 427.647 117.115 411.791L232.744 294.703C233.936 293.495 235.221 292.435 236.576 291.522L236.257 291.145L418.712 106.389Z"
            fill="#999ffa" />
        <path fill-rule="evenodd" clip-rule="evenodd"
            d="M117.095 411.812C117.102 411.805 117.108 411.798 117.115 411.791L232.744 294.703C242.446 284.879 258.275 284.779 268.099 294.481L385.248 410.17C401.095 425.82 427.953 414.498 427.814 392.225L426.132 124.008C426.089 117.111 423.257 110.884 418.712 106.389L117.095 411.812Z"
            fill="#666cc6" />
    </g>
    <defs>
        <clipPath id="clip0_1_2">
            <rect width="500" height="500" fill="white" />
        </clipPath>
    </defs>
</svg>