<svg width="500" height="500" viewBox="0 0 500 500" fill="none" xmlns="http://www.w3.org/2000/svg">
<path fill-rule="evenodd" clip-rule="evenodd" d="M250 10.3376C243.604 10.3331 237.207 12.7677 232.322 17.6422L17.6955 231.839C7.92255 241.592 7.90667 257.422 17.66 267.194L207.305 457.219C223.047 472.993 250 461.844 250 439.559V275C250 273.303 250.169 271.646 250.491 270.044L250 270V10.3376Z" fill="#A77CE4"/>
<path fill-rule="evenodd" clip-rule="evenodd" d="M250 439.588C250 439.578 250 439.569 250 439.559V275C250 261.193 261.193 250 275 250H439.645C461.917 250 473.071 223.071 457.322 207.322L267.66 17.6599C262.783 12.7832 256.392 10.3421 250 10.3376V439.588Z" fill="#4B4453"/>
</svg>
