<svg width="6279" height="4892" viewBox="0 0 6279 4892" fill="none" xmlns="http://www.w3.org/2000/svg">
<g clip-path="url(#clip0_1_13)">
<path fill-rule="evenodd" clip-rule="evenodd" d="M-42.2411 1144.65C249.636 949.289 993.795 572.52 1686.72 597.151C2048.8 610.021 2309.62 682.186 2592.84 760.546C2991.78 870.928 3435.16 993.602 4268.57 980.151C5038.44 967.725 5360.6 854.753 5618.32 764.38C5837.63 687.47 6010.28 626.928 6372.48 658.651C7002.72 713.851 6774.87 977.651 6582.16 1102.65L6374.12 1148.29V3578.57L6582.16 3583.15L6717.01 4330.15C6773.41 4266.01 7331.83 4492.13 6774.87 4524.65C6352.99 4549.28 5926.26 4453.05 5506.25 4358.33C5141.94 4276.17 4782.7 4195.15 4436.09 4195.15C4065.8 4195.15 3551.25 4272.48 3020.24 4352.28C2481.17 4433.28 1925.14 4516.84 1485.81 4524.65C1116.87 4531.21 668.46 4408.78 298.482 4307.76C-31.2076 4217.74 -298.615 4144.73 -392 4195.15V3429.65L-55.309 3437.06V1144.65H-42.2411Z" fill="#D9D9D9"/>
</g>
<defs>
<clipPath id="clip0_1_13">
<rect width="6279" height="4892" fill="white"/>
</clipPath>
</defs>
</svg>
