<svg width="417" height="417" viewBox="0 0 417 417" fill="none" xmlns="http://www.w3.org/2000/svg">
<path d="M85.2988 243.757V89L203.489 243.757V89L321.679 243.757V93.4274" stroke="#5C4C43" stroke-width="30" stroke-linecap="square" stroke-linejoin="bevel"/>
<path d="M80 169.095L103.789 184.43L110.817 164.933L136.461 186.2L148.393 169.132" stroke="#5C4C43" stroke-width="8" stroke-linecap="square" stroke-linejoin="bevel"/>
<path d="M203.153 158.613L220.277 189.398L224.642 166.378L234.044 179.413L240.088 166.378L260.569 193.28L269.971 175.531" stroke="#5C4C43" stroke-width="8" stroke-linecap="square" stroke-linejoin="bevel"/>
<g filter="url(#filter0_d_5406_15120)">
<path d="M65.5 319.81H56.95L42.65 298.16V319.81H34.1V284.71H42.65L56.95 306.46V284.71H65.5V319.81ZM69.9977 305.81C69.9977 302.943 70.531 300.426 71.5977 298.26C72.6977 296.093 74.181 294.426 76.0477 293.26C77.9143 292.093 79.9977 291.51 82.2977 291.51C84.2643 291.51 85.981 291.91 87.4477 292.71C88.9477 293.51 90.0977 294.56 90.8977 295.86V291.91H99.4477V319.81H90.8977V315.86C90.0643 317.16 88.8977 318.21 87.3977 319.01C85.931 319.81 84.2143 320.21 82.2477 320.21C79.981 320.21 77.9143 319.626 76.0477 318.46C74.181 317.26 72.6977 315.576 71.5977 313.41C70.531 311.21 69.9977 308.676 69.9977 305.81ZM90.8977 305.86C90.8977 303.726 90.2977 302.043 89.0977 300.81C87.931 299.576 86.4977 298.96 84.7977 298.96C83.0977 298.96 81.6477 299.576 80.4477 300.81C79.281 302.01 78.6977 303.676 78.6977 305.81C78.6977 307.943 79.281 309.643 80.4477 310.91C81.6477 312.143 83.0977 312.76 84.7977 312.76C86.4977 312.76 87.931 312.143 89.0977 310.91C90.2977 309.676 90.8977 307.993 90.8977 305.86ZM121.183 312.56V319.81H116.833C113.733 319.81 111.317 319.06 109.583 317.56C107.85 316.026 106.983 313.543 106.983 310.11V299.01H103.583V291.91H106.983V285.11H115.533V291.91H121.133V299.01H115.533V310.21C115.533 311.043 115.733 311.643 116.133 312.01C116.533 312.376 117.2 312.56 118.133 312.56H121.183ZM153.496 291.91V319.81H144.946V316.01C144.079 317.243 142.896 318.243 141.396 319.01C139.929 319.743 138.296 320.11 136.496 320.11C134.362 320.11 132.479 319.643 130.846 318.71C129.212 317.743 127.946 316.36 127.046 314.56C126.146 312.76 125.696 310.643 125.696 308.21V291.91H134.196V307.06C134.196 308.926 134.679 310.376 135.646 311.41C136.612 312.443 137.912 312.96 139.546 312.96C141.212 312.96 142.529 312.443 143.496 311.41C144.462 310.376 144.946 308.926 144.946 307.06V291.91H153.496ZM168.187 296.56C169.187 295.026 170.437 293.826 171.937 292.96C173.437 292.06 175.104 291.61 176.937 291.61V300.66H174.587C172.454 300.66 170.854 301.126 169.787 302.06C168.72 302.96 168.187 304.56 168.187 306.86V319.81H159.637V291.91H168.187V296.56ZM207.324 305.41C207.324 306.21 207.274 307.043 207.174 307.91H187.824C187.957 309.643 188.507 310.976 189.474 311.91C190.474 312.81 191.69 313.26 193.124 313.26C195.257 313.26 196.74 312.36 197.574 310.56H206.674C206.207 312.393 205.357 314.043 204.124 315.51C202.924 316.976 201.407 318.126 199.574 318.96C197.74 319.793 195.69 320.21 193.424 320.21C190.69 320.21 188.257 319.626 186.124 318.46C183.99 317.293 182.324 315.626 181.124 313.46C179.924 311.293 179.324 308.76 179.324 305.86C179.324 302.96 179.907 300.426 181.074 298.26C182.274 296.093 183.94 294.426 186.074 293.26C188.207 292.093 190.657 291.51 193.424 291.51C196.124 291.51 198.524 292.076 200.624 293.21C202.724 294.343 204.357 295.96 205.524 298.06C206.724 300.16 207.324 302.61 207.324 305.41ZM198.574 303.16C198.574 301.693 198.074 300.526 197.074 299.66C196.074 298.793 194.824 298.36 193.324 298.36C191.89 298.36 190.674 298.776 189.674 299.61C188.707 300.443 188.107 301.626 187.874 303.16H198.574ZM240.684 319.81H232.134L221.684 298.16L217.834 319.81H209.284L215.484 284.71H224.034L234.484 306.46L238.334 284.71H246.884L240.684 319.81ZM279.332 291.91L274.432 319.81H265.882L266.532 316.01C265.432 317.243 264.082 318.243 262.482 319.01C260.915 319.743 259.232 320.11 257.432 320.11C254.632 320.11 252.432 319.326 250.832 317.76C249.232 316.16 248.432 313.943 248.432 311.11C248.432 310.043 248.515 309.076 248.682 308.21L251.582 291.91H260.082L257.432 307.06C257.332 307.593 257.282 308.11 257.282 308.61C257.282 310.01 257.665 311.093 258.432 311.86C259.232 312.593 260.332 312.96 261.732 312.96C263.332 312.96 264.682 312.493 265.782 311.56C266.915 310.593 267.665 309.226 268.032 307.46L270.782 291.91H279.332ZM281.373 305.81C281.873 302.943 282.857 300.426 284.323 298.26C285.79 296.093 287.557 294.426 289.623 293.26C291.69 292.093 293.873 291.51 296.173 291.51C298.007 291.51 299.607 291.893 300.973 292.66C302.373 293.426 303.39 294.46 304.023 295.76L306.323 282.81H314.873L308.323 319.81H299.773L300.473 315.81C299.407 317.143 298.073 318.21 296.473 319.01C294.873 319.81 293.09 320.21 291.123 320.21C289.157 320.21 287.407 319.76 285.873 318.86C284.373 317.96 283.19 316.676 282.323 315.01C281.49 313.343 281.073 311.393 281.073 309.16C281.073 308.126 281.173 307.01 281.373 305.81ZM302.273 305.86C302.373 305.26 302.423 304.71 302.423 304.21C302.423 302.576 301.94 301.293 300.973 300.36C300.04 299.426 298.84 298.96 297.373 298.96C295.673 298.96 294.123 299.576 292.723 300.81C291.323 302.01 290.44 303.676 290.073 305.81C289.973 306.41 289.923 306.96 289.923 307.46C289.923 309.093 290.39 310.393 291.323 311.36C292.29 312.293 293.49 312.76 294.923 312.76C296.623 312.76 298.173 312.143 299.573 310.91C300.973 309.676 301.873 307.993 302.273 305.86ZM330.109 291.51C332.076 291.51 333.742 291.91 335.109 292.71C336.476 293.51 337.426 294.56 337.959 295.86L338.659 291.91H347.209L342.309 319.76C341.842 322.326 340.909 324.643 339.509 326.71C338.142 328.81 336.292 330.476 333.959 331.71C331.659 332.943 328.976 333.56 325.909 333.56C321.776 333.56 318.592 332.576 316.359 330.61C314.126 328.676 313.126 326.043 313.359 322.71H321.809C321.909 323.776 322.392 324.61 323.259 325.21C324.159 325.843 325.342 326.16 326.809 326.16C328.576 326.16 330.076 325.643 331.309 324.61C332.542 323.61 333.359 321.993 333.759 319.76L334.459 315.81C333.392 317.11 332.042 318.176 330.409 319.01C328.809 319.81 327.026 320.21 325.059 320.21C323.092 320.21 321.342 319.76 319.809 318.86C318.309 317.96 317.126 316.676 316.259 315.01C315.426 313.343 315.009 311.393 315.009 309.16C315.009 308.126 315.109 307.01 315.309 305.81C315.809 302.943 316.792 300.426 318.259 298.26C319.726 296.093 321.492 294.426 323.559 293.26C325.626 292.093 327.809 291.51 330.109 291.51ZM336.209 305.86C336.309 305.26 336.359 304.71 336.359 304.21C336.359 302.576 335.876 301.293 334.909 300.36C333.976 299.426 332.776 298.96 331.309 298.96C329.609 298.96 328.059 299.576 326.659 300.81C325.259 302.01 324.376 303.676 324.009 305.81C323.909 306.41 323.859 306.96 323.859 307.46C323.859 309.093 324.326 310.393 325.259 311.36C326.226 312.293 327.426 312.76 328.859 312.76C330.559 312.76 332.109 312.143 333.509 310.91C334.909 309.676 335.809 307.993 336.209 305.86ZM365.845 291.51C369.445 291.51 372.295 292.493 374.395 294.46C376.528 296.393 377.595 299.043 377.595 302.41C377.595 303.51 377.511 304.493 377.345 305.36C377.211 306.126 377.011 306.943 376.745 307.81H357.395C357.361 308.01 357.345 308.326 357.345 308.76C357.345 310.226 357.745 311.343 358.545 312.11C359.345 312.876 360.411 313.26 361.745 313.26C363.878 313.26 365.511 312.36 366.645 310.56H375.745C374.545 313.393 372.595 315.71 369.895 317.51C367.195 319.31 364.161 320.21 360.795 320.21C357.195 320.21 354.311 319.21 352.145 317.21C350.011 315.21 348.945 312.493 348.945 309.06C348.945 308.026 349.045 306.96 349.245 305.86C349.745 302.96 350.778 300.426 352.345 298.26C353.911 296.093 355.861 294.426 358.195 293.26C360.528 292.093 363.078 291.51 365.845 291.51ZM368.945 303.46C369.011 302.993 369.045 302.676 369.045 302.51C369.045 301.176 368.628 300.16 367.795 299.46C366.961 298.726 365.861 298.36 364.495 298.36C363.028 298.36 361.728 298.81 360.595 299.71C359.495 300.576 358.695 301.826 358.195 303.46H368.945Z" fill="#5C4C43"/>
</g>
<defs>
<filter id="filter0_d_5406_15120" x="30.0996" y="282.81" width="351.495" height="58.75" filterUnits="userSpaceOnUse" color-interpolation-filters="sRGB">
<feFlood flood-opacity="0" result="BackgroundImageFix"/>
<feColorMatrix in="SourceAlpha" type="matrix" values="0 0 0 0 0 0 0 0 0 0 0 0 0 0 0 0 0 0 127 0" result="hardAlpha"/>
<feOffset dy="4"/>
<feGaussianBlur stdDeviation="2"/>
<feComposite in2="hardAlpha" operator="out"/>
<feColorMatrix type="matrix" values="0 0 0 0 0.360784 0 0 0 0 0.298039 0 0 0 0 0.262745 0 0 0 1 0"/>
<feBlend mode="normal" in2="BackgroundImageFix" result="effect1_dropShadow_5406_15120"/>
<feBlend mode="normal" in="SourceGraphic" in2="effect1_dropShadow_5406_15120" result="shape"/>
</filter>
</defs>
</svg>
