<svg width="684" height="684" viewBox="0 0 684 684" fill="none" xmlns="http://www.w3.org/2000/svg">
<path d="M133.06 541.582C-10.1219 401.04 37.6603 229.541 79.4491 161.359C95.6697 137.166 134.379 85.4795 159.453 72.283C190.794 55.7875 204.191 55.7875 220.486 92.0777C269.973 234.764 452.249 298.272 604.008 280.952C649.371 278.478 647.195 311.469 646.897 327.14C641.948 586.945 312.037 717.26 133.06 541.582Z" fill="#FFF7B1"/>
<path d="M52.1243 415.389C50.8642 411.952 49.803 408.646 48.9324 405.493C49.9598 408.836 51.0241 412.134 52.1243 415.389C77.1279 483.594 180.44 603.598 426.681 606.739C308.263 647.293 117.263 608.086 52.1243 415.389Z" fill="#E9E1A2"/>
<ellipse cx="415.959" cy="489.621" rx="84.1274" ry="66.807" fill="#E9E1A2"/>
<path d="M496.787 471.477C424.737 406.049 356.796 455.761 331.831 488.796C331.831 473.401 342.26 430.103 410.517 423.368C465.123 417.98 490.783 453.196 496.787 471.477Z" fill="#CAC06F"/>
<ellipse cx="363.294" cy="318.998" rx="42.4281" ry="33.0117" transform="rotate(15.225 363.294 318.998)" fill="#E9E1A2"/>
<ellipse cx="543.396" cy="364.568" rx="59.9005" ry="39.0502" transform="rotate(15.225 543.396 364.568)" fill="#E9E1A2"/>
<ellipse cx="258.703" cy="381.264" rx="32.9347" ry="33.9368" transform="rotate(15.225 258.703 381.264)" fill="#E9E1A2"/>
<ellipse cx="104.586" cy="377.053" rx="35.9799" ry="32.459" transform="rotate(26.0597 104.586 377.053)" fill="#E9E1A2"/>
<ellipse cx="59.9501" cy="45.9802" rx="59.9501" ry="45.9802" transform="matrix(0.881914 0.47141 -0.414164 0.910202 170.322 422.293)" fill="#E9E1A2"/>
<path d="M601.758 376.417C568.249 317.718 511.282 332.504 486.987 347.235C490.492 337.543 507.358 312.819 554.751 325.166C592.666 335.043 601.887 363.449 601.758 376.417Z" fill="#CAC06F"/>
<path d="M404.849 324.678C382.257 281.597 341.94 293.539 324.605 304.895C327.233 297.631 339.508 278.969 372.639 287.359C399.143 294.07 405.156 315.035 404.849 324.678Z" fill="#CAC06F"/>
<ellipse cx="176.565" cy="237.893" rx="68.5946" ry="51.0812" transform="rotate(56.5758 176.565 237.893)" fill="#E9E1A2"/>
<path d="M212.072 296.888C242.951 219.484 179.944 185.941 144.581 178.845C157.311 173.394 196.475 165.914 224.046 214.912C246.103 254.11 225.254 285.895 212.072 296.888Z" fill="#CAC06F"/>
<path d="M257.86 518.47C244.712 445.291 185.388 446.389 157.37 456.085C163.854 446.398 187.983 423.786 229.383 449.872C262.504 470.74 262.168 504.299 257.86 518.47Z" fill="#CAC06F"/>
<path d="M135.797 393.465C133.756 343.985 92.9823 350.873 72.8507 360.502C78.2189 353.103 96.9143 334.903 122.811 348.75C143.528 359.827 140.101 383.175 135.797 393.465Z" fill="#CAC06F"/>
<path d="M288.187 398.801C289.778 346.871 248.006 356.24 226.922 367.415C232.901 359.354 253.166 339.24 278.35 352.453C298.496 363.023 293.302 387.756 288.187 398.801Z" fill="#CAC06F"/>
</svg>
